<?xml version="1.0" encoding="UTF-8" standalone="no"?><svg xmlns="http://www.w3.org/2000/svg" xmlns:xlink="http://www.w3.org/1999/xlink" contentScriptType="application/ecmascript" contentStyleType="text/css" height="526px" preserveAspectRatio="none" style="width:586px;height:526px;" version="1.1" viewBox="0 0 586 526" width="586px" zoomAndPan="magnify"><defs><filter height="300%" id="f1thvawkwe7lo1" width="300%" x="-1" y="-1"><feGaussianBlur result="blurOut" stdDeviation="2.0"/><feColorMatrix in="blurOut" result="blurOut2" type="matrix" values="0 0 0 0 0 0 0 0 0 0 0 0 0 0 0 0 0 0 .4 0"/><feOffset dx="4.0" dy="4.0" in="blurOut2" result="blurOut3"/><feBlend in="SourceGraphic" in2="blurOut3" mode="normal"/></filter></defs><g><line style="stroke: #A80036; stroke-width: 1.0; stroke-dasharray: 5.0,5.0;" x1="29" x2="29" y1="86.7999" y2="439.2001"/><line style="stroke: #A80036; stroke-width: 1.0; stroke-dasharray: 5.0,5.0;" x1="190.5" x2="190.5" y1="86.7999" y2="439.2001"/><line style="stroke: #A80036; stroke-width: 1.0; stroke-dasharray: 5.0,5.0;" x1="348.5" x2="348.5" y1="86.7999" y2="439.2001"/><line style="stroke: #A80036; stroke-width: 1.0; stroke-dasharray: 5.0,5.0;" x1="511" x2="511" y1="86.7999" y2="439.2001"/><text fill="#000000" font-family="sans-serif" font-size="14" lengthAdjust="spacingAndGlyphs" textLength="36" x="8" y="83.0059">Client</text><ellipse cx="29" cy="13" fill="#FEFECE" filter="url(#f1thvawkwe7lo1)" rx="8" ry="8" style="stroke: #A80036; stroke-width: 2.0;"/><path d="M29,21 L29,48 M16,29 L42,29 M29,48 L16,63 M29,48 L42,63 " fill="none" filter="url(#f1thvawkwe7lo1)" style="stroke: #A80036; stroke-width: 2.0;"/><text fill="#000000" font-family="sans-serif" font-size="14" lengthAdjust="spacingAndGlyphs" textLength="36" x="8" y="451.206">Client</text><ellipse cx="29" cy="465" fill="#FEFECE" filter="url(#f1thvawkwe7lo1)" rx="8" ry="8" style="stroke: #A80036; stroke-width: 2.0;"/><path d="M29,473 L29,500 M16,481 L42,481 M29,500 L16,515 M29,500 L42,515 " fill="none" filter="url(#f1thvawkwe7lo1)" style="stroke: #A80036; stroke-width: 2.0;"/><rect fill="#FEFECE" filter="url(#f1thvawkwe7lo1)" height="30.7999" style="stroke: #A80036; stroke-width: 1.5;" width="167" x="105.5" y="51"/><text fill="#000000" font-family="sans-serif" font-size="14" lengthAdjust="spacingAndGlyphs" textLength="153" x="112.5" y="71.0059">JSON-RPC API (if used)</text><rect fill="#FEFECE" filter="url(#f1thvawkwe7lo1)" height="30.7999" style="stroke: #A80036; stroke-width: 1.5;" width="167" x="105.5" y="438.2001"/><text fill="#000000" font-family="sans-serif" font-size="14" lengthAdjust="spacingAndGlyphs" textLength="153" x="112.5" y="458.206">JSON-RPC API (if used)</text><rect fill="#FEFECE" filter="url(#f1thvawkwe7lo1)" height="30.7999" style="stroke: #A80036; stroke-width: 1.5;" width="121" x="286.5" y="51"/><text fill="#000000" font-family="sans-serif" font-size="14" lengthAdjust="spacingAndGlyphs" textLength="107" x="293.5" y="71.0059">Internal Rust API</text><rect fill="#FEFECE" filter="url(#f1thvawkwe7lo1)" height="30.7999" style="stroke: #A80036; stroke-width: 1.5;" width="121" x="286.5" y="438.2001"/><text fill="#000000" font-family="sans-serif" font-size="14" lengthAdjust="spacingAndGlyphs" textLength="107" x="293.5" y="458.206">Internal Rust API</text><rect fill="#FEFECE" filter="url(#f1thvawkwe7lo1)" height="30.7999" style="stroke: #A80036; stroke-width: 1.5;" width="112" x="453" y="51"/><text fill="#000000" font-family="sans-serif" font-size="14" lengthAdjust="spacingAndGlyphs" textLength="98" x="460" y="71.0059">Wallet Backend</text><rect fill="#FEFECE" filter="url(#f1thvawkwe7lo1)" height="30.7999" style="stroke: #A80036; stroke-width: 1.5;" width="112" x="453" y="438.2001"/><text fill="#000000" font-family="sans-serif" font-size="14" lengthAdjust="spacingAndGlyphs" textLength="98" x="460" y="458.206">Wallet Backend</text><rect fill="#EEEEEE" filter="url(#f1thvawkwe7lo1)" height="3" style="stroke: #EEEEEE; stroke-width: 1.0;" width="571" x="3" y="117.5999"/><line style="stroke: #000000; stroke-width: 1.0;" x1="3" x2="574" y1="117.5999" y2="117.5999"/><line style="stroke: #000000; stroke-width: 1.0;" x1="3" x2="574" y1="120.5999" y2="120.5999"/><rect fill="#EEEEEE" filter="url(#f1thvawkwe7lo1)" height="23.6" style="stroke: #000000; stroke-width: 2.0;" width="207" x="185" y="106.7999"/><text fill="#000000" font-family="sans-serif" font-size="13" font-weight="bold" lengthAdjust="spacingAndGlyphs" textLength="193" x="191" y="122.8769">Initialization (ECDH/secp256k1)</text><line style="stroke: #A80036; stroke-width: 1.0;" x1="29" x2="71" y1="162" y2="162"/><line style="stroke: #A80036; stroke-width: 1.0;" x1="71" x2="71" y1="162" y2="175"/><line style="stroke: #A80036; stroke-width: 1.0;" x1="30" x2="71" y1="175" y2="175"/><polygon fill="#A80036" points="40,171,30,175,40,179,36,175" style="stroke: #A80036; stroke-width: 1.0;"/><text fill="#000000" font-family="sans-serif" font-size="13" lengthAdjust="spacingAndGlyphs" textLength="128" x="36" y="156.477">Calc Pub ECDH Key (</text><text fill="#000000" font-family="sans-serif" font-size="13" font-weight="bold" lengthAdjust="spacingAndGlyphs" textLength="16" x="164" y="156.477">cP</text><text fill="#000000" font-family="sans-serif" font-size="13" lengthAdjust="spacingAndGlyphs" textLength="4" x="180" y="156.477">)</text><polygon fill="#A80036" points="179,200.6,189,204.6,179,208.6,183,204.6" style="stroke: #A80036; stroke-width: 1.0;"/><line style="stroke: #A80036; stroke-width: 1.0;" x1="29" x2="185" y1="204.6" y2="204.6"/><text fill="#000000" font-family="sans-serif" font-size="13" lengthAdjust="spacingAndGlyphs" textLength="95" x="36" y="199.077">init_api_secure (</text><text fill="#000000" font-family="sans-serif" font-size="13" font-weight="bold" lengthAdjust="spacingAndGlyphs" textLength="16" x="131" y="199.077">cP</text><text fill="#000000" font-family="sans-serif" font-size="13" lengthAdjust="spacingAndGlyphs" textLength="4" x="147" y="199.077">)</text><polygon fill="#A80036" points="337,230.2,347,234.2,337,238.2,341,234.2" style="stroke: #A80036; stroke-width: 1.0;"/><line style="stroke: #A80036; stroke-width: 1.0;" x1="191" x2="343" y1="234.2" y2="234.2"/><text fill="#000000" font-family="sans-serif" font-size="13" lengthAdjust="spacingAndGlyphs" textLength="95" x="198" y="228.677">init_api_secure (</text><text fill="#000000" font-family="sans-serif" font-size="13" font-weight="bold" lengthAdjust="spacingAndGlyphs" textLength="16" x="293" y="228.677">cP</text><text fill="#000000" font-family="sans-serif" font-size="13" lengthAdjust="spacingAndGlyphs" textLength="4" x="309" y="228.677">)</text><line style="stroke: #A80036; stroke-width: 1.0;" x1="349" x2="391" y1="263.8" y2="263.8"/><line style="stroke: #A80036; stroke-width: 1.0;" x1="391" x2="391" y1="263.8" y2="276.8"/><line style="stroke: #A80036; stroke-width: 1.0;" x1="350" x2="391" y1="276.8" y2="276.8"/><polygon fill="#A80036" points="360,272.8,350,276.8,360,280.8,356,276.8" style="stroke: #A80036; stroke-width: 1.0;"/><text fill="#000000" font-family="sans-serif" font-size="13" lengthAdjust="spacingAndGlyphs" textLength="128" x="356" y="258.277">Calc Pub ECDH Key (</text><text fill="#000000" font-family="sans-serif" font-size="13" font-weight="bold" lengthAdjust="spacingAndGlyphs" textLength="16" x="484" y="258.277">sP</text><text fill="#000000" font-family="sans-serif" font-size="13" lengthAdjust="spacingAndGlyphs" textLength="4" x="500" y="258.277">)</text><line style="stroke: #A80036; stroke-width: 1.0;" x1="349" x2="391" y1="306.4" y2="306.4"/><line style="stroke: #A80036; stroke-width: 1.0;" x1="391" x2="391" y1="306.4" y2="319.4"/><line style="stroke: #A80036; stroke-width: 1.0;" x1="350" x2="391" y1="319.4" y2="319.4"/><polygon fill="#A80036" points="360,315.4,350,319.4,360,323.4,356,319.4" style="stroke: #A80036; stroke-width: 1.0;"/><text fill="#000000" font-family="sans-serif" font-size="13" lengthAdjust="spacingAndGlyphs" textLength="117" x="356" y="300.877">Calc shared secret (</text><text fill="#000000" font-family="sans-serif" font-size="13" font-weight="bold" lengthAdjust="spacingAndGlyphs" textLength="16" x="473" y="300.877">sS</text><text fill="#000000" font-family="sans-serif" font-size="13" lengthAdjust="spacingAndGlyphs" textLength="4" x="489" y="300.877">)</text><polygon fill="#A80036" points="202,345,192,349,202,353,198,349" style="stroke: #A80036; stroke-width: 1.0;"/><line style="stroke: #A80036; stroke-width: 1.0;" x1="196" x2="348" y1="349" y2="349"/><text fill="#000000" font-family="sans-serif" font-size="13" font-weight="bold" lengthAdjust="spacingAndGlyphs" textLength="16" x="208" y="343.477">sP</text><polygon fill="#A80036" points="40,374.6,30,378.6,40,382.6,36,378.6" style="stroke: #A80036; stroke-width: 1.0;"/><line style="stroke: #A80036; stroke-width: 1.0;" x1="34" x2="190" y1="378.6" y2="378.6"/><text fill="#000000" font-family="sans-serif" font-size="13" font-weight="bold" lengthAdjust="spacingAndGlyphs" textLength="16" x="46" y="373.077">sP</text><line style="stroke: #A80036; stroke-width: 1.0;" x1="29" x2="71" y1="408.2001" y2="408.2001"/><line style="stroke: #A80036; stroke-width: 1.0;" x1="71" x2="71" y1="408.2001" y2="421.2001"/><line style="stroke: #A80036; stroke-width: 1.0;" x1="30" x2="71" y1="421.2001" y2="421.2001"/><polygon fill="#A80036" points="40,417.2001,30,421.2001,40,425.2001,36,421.2001" style="stroke: #A80036; stroke-width: 1.0;"/><text fill="#000000" font-family="sans-serif" font-size="13" lengthAdjust="spacingAndGlyphs" textLength="117" x="36" y="402.677">Calc shared secret (</text><text fill="#000000" font-family="sans-serif" font-size="13" font-weight="bold" lengthAdjust="spacingAndGlyphs" textLength="7" x="153" y="402.677">s</text><text fill="#000000" font-family="sans-serif" font-size="13" lengthAdjust="spacingAndGlyphs" textLength="4" x="160" y="402.677">)</text><!--
@startuml
actor "Client" as client
participant "JSON-RPC API (if used)" as jsonrpc
participant "Internal Rust API" as rustapi
participant "Wallet Backend" as backend

== Initialization (ECDH/secp256k1)==
client -> client: Calc Pub ECDH Key (**cP**)
client -> jsonrpc: init_api_secure (**cP**)
jsonrpc -> rustapi: init_api_secure (**cP**)
rustapi -> rustapi: Calc Pub ECDH Key (**sP**)
rustapi -> rustapi: Calc shared secret (**sS**)
rustapi -> jsonrpc: **sP**
jsonrpc -> client: **sP**
client -> client: Calc shared secret (**s**)
@enduml

PlantUML version 1.2019.06(Fri May 24 18:10:25 IST 2019)
(GPL source distribution)
Java Runtime: OpenJDK Runtime Environment
JVM: OpenJDK 64-Bit Server VM
Java Version: 12.0.1+12
Operating System: Linux
OS Version: 5.1.11-arch1-1-ARCH
Default Encoding: UTF-8
Language: en
Country: US
--></g></svg>