<?xml version="1.0" encoding="UTF-8" standalone="no"?><svg xmlns="http://www.w3.org/2000/svg" xmlns:xlink="http://www.w3.org/1999/xlink" contentScriptType="application/ecmascript" contentStyleType="text/css" height="915px" preserveAspectRatio="none" style="width:680px;height:915px;" version="1.1" viewBox="0 0 680 915" width="680px" zoomAndPan="magnify"><defs><filter height="300%" id="f1q8dljh4mbph7" width="300%" x="-1" y="-1"><feGaussianBlur result="blurOut" stdDeviation="2.0"/><feColorMatrix in="blurOut" result="blurOut2" type="matrix" values="0 0 0 0 0 0 0 0 0 0 0 0 0 0 0 0 0 0 .4 0"/><feOffset dx="4.0" dy="4.0" in="blurOut2" result="blurOut3"/><feBlend in="SourceGraphic" in2="blurOut3" mode="normal"/></filter></defs><g><line style="stroke: #A80036; stroke-width: 1.0; stroke-dasharray: 5.0,5.0;" x1="29" x2="29" y1="86.7999" y2="827.8002"/><line style="stroke: #A80036; stroke-width: 1.0; stroke-dasharray: 5.0,5.0;" x1="186.5" x2="186.5" y1="86.7999" y2="827.8002"/><line style="stroke: #A80036; stroke-width: 1.0; stroke-dasharray: 5.0,5.0;" x1="344.5" x2="344.5" y1="86.7999" y2="827.8002"/><line style="stroke: #A80036; stroke-width: 1.0; stroke-dasharray: 5.0,5.0;" x1="478" x2="478" y1="86.7999" y2="827.8002"/><text fill="#000000" font-family="sans-serif" font-size="14" lengthAdjust="spacingAndGlyphs" textLength="36" x="8" y="83.0059">Client</text><ellipse cx="29" cy="13" fill="#FEFECE" filter="url(#f1q8dljh4mbph7)" rx="8" ry="8" style="stroke: #A80036; stroke-width: 2.0;"/><path d="M29,21 L29,48 M16,29 L42,29 M29,48 L16,63 M29,48 L42,63 " fill="none" filter="url(#f1q8dljh4mbph7)" style="stroke: #A80036; stroke-width: 2.0;"/><text fill="#000000" font-family="sans-serif" font-size="14" lengthAdjust="spacingAndGlyphs" textLength="36" x="8" y="839.8061">Client</text><ellipse cx="29" cy="853.6001" fill="#FEFECE" filter="url(#f1q8dljh4mbph7)" rx="8" ry="8" style="stroke: #A80036; stroke-width: 2.0;"/><path d="M29,861.6001 L29,888.6001 M16,869.6001 L42,869.6001 M29,888.6001 L16,903.6001 M29,888.6001 L42,903.6001 " fill="none" filter="url(#f1q8dljh4mbph7)" style="stroke: #A80036; stroke-width: 2.0;"/><rect fill="#FEFECE" filter="url(#f1q8dljh4mbph7)" height="30.7999" style="stroke: #A80036; stroke-width: 1.5;" width="167" x="101.5" y="51"/><text fill="#000000" font-family="sans-serif" font-size="14" lengthAdjust="spacingAndGlyphs" textLength="153" x="108.5" y="71.0059">JSON-RPC API (if used)</text><rect fill="#FEFECE" filter="url(#f1q8dljh4mbph7)" height="30.7999" style="stroke: #A80036; stroke-width: 1.5;" width="167" x="101.5" y="826.8002"/><text fill="#000000" font-family="sans-serif" font-size="14" lengthAdjust="spacingAndGlyphs" textLength="153" x="108.5" y="846.8061">JSON-RPC API (if used)</text><rect fill="#FEFECE" filter="url(#f1q8dljh4mbph7)" height="30.7999" style="stroke: #A80036; stroke-width: 1.5;" width="121" x="282.5" y="51"/><text fill="#000000" font-family="sans-serif" font-size="14" lengthAdjust="spacingAndGlyphs" textLength="107" x="289.5" y="71.0059">Internal Rust API</text><rect fill="#FEFECE" filter="url(#f1q8dljh4mbph7)" height="30.7999" style="stroke: #A80036; stroke-width: 1.5;" width="121" x="282.5" y="826.8002"/><text fill="#000000" font-family="sans-serif" font-size="14" lengthAdjust="spacingAndGlyphs" textLength="107" x="289.5" y="846.8061">Internal Rust API</text><rect fill="#FEFECE" filter="url(#f1q8dljh4mbph7)" height="30.7999" style="stroke: #A80036; stroke-width: 1.5;" width="112" x="420" y="51"/><text fill="#000000" font-family="sans-serif" font-size="14" lengthAdjust="spacingAndGlyphs" textLength="98" x="427" y="71.0059">Wallet Backend</text><rect fill="#FEFECE" filter="url(#f1q8dljh4mbph7)" height="30.7999" style="stroke: #A80036; stroke-width: 1.5;" width="112" x="420" y="826.8002"/><text fill="#000000" font-family="sans-serif" font-size="14" lengthAdjust="spacingAndGlyphs" textLength="98" x="427" y="846.8061">Wallet Backend</text><rect fill="#EEEEEE" filter="url(#f1q8dljh4mbph7)" height="3" style="stroke: #EEEEEE; stroke-width: 1.0;" width="665" x="3" y="117.5999"/><line style="stroke: #000000; stroke-width: 1.0;" x1="3" x2="668" y1="117.5999" y2="117.5999"/><line style="stroke: #000000; stroke-width: 1.0;" x1="3" x2="668" y1="120.5999" y2="120.5999"/><rect fill="#EEEEEE" filter="url(#f1q8dljh4mbph7)" height="23.6" style="stroke: #000000; stroke-width: 2.0;" width="93" x="289" y="106.7999"/><text fill="#000000" font-family="sans-serif" font-size="13" font-weight="bold" lengthAdjust="spacingAndGlyphs" textLength="75" x="295" y="122.8769">Open Wallet</text><line style="stroke: #A80036; stroke-width: 1.0;" x1="29" x2="71" y1="162" y2="162"/><line style="stroke: #A80036; stroke-width: 1.0;" x1="71" x2="71" y1="162" y2="175"/><line style="stroke: #A80036; stroke-width: 1.0;" x1="30" x2="71" y1="175" y2="175"/><polygon fill="#A80036" points="40,171,30,175,40,179,36,175" style="stroke: #A80036; stroke-width: 1.0;"/><text fill="#000000" font-family="sans-serif" font-size="13" lengthAdjust="spacingAndGlyphs" textLength="122" x="36" y="156.477">Plain-text password (</text><text fill="#000000" font-family="sans-serif" font-size="13" font-weight="bold" lengthAdjust="spacingAndGlyphs" textLength="18" x="158" y="156.477">pw</text><text fill="#000000" font-family="sans-serif" font-size="13" lengthAdjust="spacingAndGlyphs" textLength="4" x="176" y="156.477">)</text><polygon fill="#A80036" points="175,200.6,185,204.6,175,208.6,179,204.6" style="stroke: #A80036; stroke-width: 1.0;"/><line style="stroke: #A80036; stroke-width: 1.0;" x1="29" x2="181" y1="204.6" y2="204.6"/><text fill="#000000" font-family="sans-serif" font-size="13" lengthAdjust="spacingAndGlyphs" textLength="75" x="36" y="199.077">Open Wallet(</text><text fill="#000000" font-family="sans-serif" font-size="13" font-weight="bold" lengthAdjust="spacingAndGlyphs" textLength="18" x="111" y="199.077">pw</text><text fill="#000000" font-family="sans-serif" font-size="13" lengthAdjust="spacingAndGlyphs" textLength="4" x="129" y="199.077">)</text><polygon fill="#A80036" points="333,230.2,343,234.2,333,238.2,337,234.2" style="stroke: #A80036; stroke-width: 1.0;"/><line style="stroke: #A80036; stroke-width: 1.0;" x1="187" x2="339" y1="234.2" y2="234.2"/><text fill="#000000" font-family="sans-serif" font-size="13" lengthAdjust="spacingAndGlyphs" textLength="75" x="194" y="228.677">Open Wallet(</text><text fill="#000000" font-family="sans-serif" font-size="13" font-weight="bold" lengthAdjust="spacingAndGlyphs" textLength="18" x="269" y="228.677">pw</text><text fill="#000000" font-family="sans-serif" font-size="13" lengthAdjust="spacingAndGlyphs" textLength="4" x="287" y="228.677">)</text><line style="stroke: #A80036; stroke-width: 1.0;" x1="345" x2="387" y1="263.8" y2="263.8"/><line style="stroke: #A80036; stroke-width: 1.0;" x1="387" x2="387" y1="263.8" y2="276.8"/><line style="stroke: #A80036; stroke-width: 1.0;" x1="346" x2="387" y1="276.8" y2="276.8"/><polygon fill="#A80036" points="356,272.8,346,276.8,356,280.8,352,276.8" style="stroke: #A80036; stroke-width: 1.0;"/><text fill="#000000" font-family="sans-serif" font-size="13" lengthAdjust="spacingAndGlyphs" textLength="101" x="352" y="258.277">Generate Token (</text><text fill="#000000" font-family="sans-serif" font-size="13" font-weight="bold" lengthAdjust="spacingAndGlyphs" textLength="4" x="453" y="258.277">t</text><text fill="#000000" font-family="sans-serif" font-size="13" lengthAdjust="spacingAndGlyphs" textLength="4" x="457" y="258.277">)</text><polygon fill="#A80036" points="466,302.4,476,306.4,466,310.4,470,306.4" style="stroke: #A80036; stroke-width: 1.0;"/><line style="stroke: #A80036; stroke-width: 1.0;" x1="345" x2="472" y1="306.4" y2="306.4"/><text fill="#000000" font-family="sans-serif" font-size="13" lengthAdjust="spacingAndGlyphs" textLength="75" x="352" y="300.877">Open Wallet(</text><text fill="#000000" font-family="sans-serif" font-size="13" font-weight="bold" lengthAdjust="spacingAndGlyphs" textLength="4" x="427" y="300.877">t</text><text fill="#000000" font-family="sans-serif" font-size="13" lengthAdjust="spacingAndGlyphs" textLength="4" x="431" y="300.877">,</text><text fill="#000000" font-family="sans-serif" font-size="13" font-weight="bold" lengthAdjust="spacingAndGlyphs" textLength="18" x="439" y="300.877">pw</text><text fill="#000000" font-family="sans-serif" font-size="13" lengthAdjust="spacingAndGlyphs" textLength="4" x="457" y="300.877">)</text><line style="stroke: #A80036; stroke-width: 1.0;" x1="478" x2="520" y1="336" y2="336"/><line style="stroke: #A80036; stroke-width: 1.0;" x1="520" x2="520" y1="336" y2="349"/><line style="stroke: #A80036; stroke-width: 1.0;" x1="479" x2="520" y1="349" y2="349"/><polygon fill="#A80036" points="489,345,479,349,489,353,485,349" style="stroke: #A80036; stroke-width: 1.0;"/><text fill="#000000" font-family="sans-serif" font-size="13" lengthAdjust="spacingAndGlyphs" textLength="81" x="485" y="330.477">Decrypt seed(</text><text fill="#000000" font-family="sans-serif" font-size="13" font-weight="bold" lengthAdjust="spacingAndGlyphs" textLength="18" x="566" y="330.477">pw</text><text fill="#000000" font-family="sans-serif" font-size="13" lengthAdjust="spacingAndGlyphs" textLength="20" x="584" y="330.477">) -&gt;</text><text fill="#000000" font-family="sans-serif" font-size="13" font-weight="bold" lengthAdjust="spacingAndGlyphs" textLength="31" x="608" y="330.477">Seed</text><line style="stroke: #A80036; stroke-width: 1.0;" x1="478" x2="520" y1="378.6" y2="378.6"/><line style="stroke: #A80036; stroke-width: 1.0;" x1="520" x2="520" y1="378.6" y2="391.6"/><line style="stroke: #A80036; stroke-width: 1.0;" x1="479" x2="520" y1="391.6" y2="391.6"/><polygon fill="#A80036" points="489,387.6,479,391.6,489,395.6,485,391.6" style="stroke: #A80036; stroke-width: 1.0;"/><text fill="#000000" font-family="sans-serif" font-size="13" lengthAdjust="spacingAndGlyphs" textLength="31" x="485" y="373.077">Store</text><text fill="#000000" font-family="sans-serif" font-size="13" font-weight="bold" lengthAdjust="spacingAndGlyphs" textLength="31" x="520" y="373.077">Seed</text><text fill="#000000" font-family="sans-serif" font-size="13" lengthAdjust="spacingAndGlyphs" textLength="6" x="551" y="373.077">^</text><text fill="#000000" font-family="sans-serif" font-size="13" font-weight="bold" lengthAdjust="spacingAndGlyphs" textLength="38" x="557" y="373.077">Token</text><text fill="#000000" font-family="sans-serif" font-size="13" lengthAdjust="spacingAndGlyphs" textLength="4" x="599" y="373.077">(</text><text fill="#000000" font-family="sans-serif" font-size="13" font-weight="bold" lengthAdjust="spacingAndGlyphs" textLength="37" x="603" y="373.077">seedT</text><text fill="#000000" font-family="sans-serif" font-size="13" lengthAdjust="spacingAndGlyphs" textLength="4" x="640" y="373.077">)</text><polygon fill="#A80036" points="198,417.2001,188,421.2001,198,425.2001,194,421.2001" style="stroke: #A80036; stroke-width: 1.0;"/><line style="stroke: #A80036; stroke-width: 1.0;" x1="192" x2="344" y1="421.2001" y2="421.2001"/><text fill="#000000" font-family="sans-serif" font-size="13" lengthAdjust="spacingAndGlyphs" textLength="46" x="204" y="415.677">Return (</text><text fill="#000000" font-family="sans-serif" font-size="13" font-weight="bold" lengthAdjust="spacingAndGlyphs" textLength="4" x="250" y="415.677">t</text><text fill="#000000" font-family="sans-serif" font-size="13" lengthAdjust="spacingAndGlyphs" textLength="4" x="254" y="415.677">)</text><polygon fill="#A80036" points="40,446.8001,30,450.8001,40,454.8001,36,450.8001" style="stroke: #A80036; stroke-width: 1.0;"/><line style="stroke: #A80036; stroke-width: 1.0;" x1="34" x2="186" y1="450.8001" y2="450.8001"/><text fill="#000000" font-family="sans-serif" font-size="13" lengthAdjust="spacingAndGlyphs" textLength="46" x="46" y="445.2771">Return (</text><text fill="#000000" font-family="sans-serif" font-size="13" font-weight="bold" lengthAdjust="spacingAndGlyphs" textLength="4" x="92" y="445.2771">t</text><text fill="#000000" font-family="sans-serif" font-size="13" lengthAdjust="spacingAndGlyphs" textLength="4" x="96" y="445.2771">)</text><line style="stroke: #A80036; stroke-width: 1.0;" x1="29" x2="71" y1="480.4001" y2="480.4001"/><line style="stroke: #A80036; stroke-width: 1.0;" x1="71" x2="71" y1="480.4001" y2="493.4001"/><line style="stroke: #A80036; stroke-width: 1.0;" x1="30" x2="71" y1="493.4001" y2="493.4001"/><polygon fill="#A80036" points="40,489.4001,30,493.4001,40,497.4001,36,493.4001" style="stroke: #A80036; stroke-width: 1.0;"/><text fill="#000000" font-family="sans-serif" font-size="13" lengthAdjust="spacingAndGlyphs" textLength="42" x="36" y="474.8771">Include</text><text fill="#000000" font-family="sans-serif" font-size="13" font-weight="bold" lengthAdjust="spacingAndGlyphs" textLength="4" x="82" y="474.8771">t</text><text fill="#000000" font-family="sans-serif" font-size="13" lengthAdjust="spacingAndGlyphs" textLength="63" x="90" y="474.8771">in next call</text><rect fill="#EEEEEE" filter="url(#f1q8dljh4mbph7)" height="3" style="stroke: #EEEEEE; stroke-width: 1.0;" width="665" x="3" y="522.2001"/><line style="stroke: #000000; stroke-width: 1.0;" x1="3" x2="668" y1="522.2001" y2="522.2001"/><line style="stroke: #000000; stroke-width: 1.0;" x1="3" x2="668" y1="525.2001" y2="525.2001"/><rect fill="#EEEEEE" filter="url(#f1q8dljh4mbph7)" height="23.6" style="stroke: #000000; stroke-width: 2.0;" width="68" x="301.5" y="511.4001"/><text fill="#000000" font-family="sans-serif" font-size="13" font-weight="bold" lengthAdjust="spacingAndGlyphs" textLength="50" x="307.5" y="527.4771">API Call</text><polygon fill="#A80036" points="175,567.6001,185,571.6001,175,575.6001,179,571.6001" style="stroke: #A80036; stroke-width: 1.0;"/><line style="stroke: #A80036; stroke-width: 1.0;" x1="29" x2="181" y1="571.6001" y2="571.6001"/><text fill="#000000" font-family="sans-serif" font-size="13" lengthAdjust="spacingAndGlyphs" textLength="48" x="36" y="566.0771">api_call(</text><text fill="#000000" font-family="sans-serif" font-size="13" font-weight="bold" lengthAdjust="spacingAndGlyphs" textLength="4" x="84" y="566.0771">t</text><text fill="#000000" font-family="sans-serif" font-size="13" lengthAdjust="spacingAndGlyphs" textLength="4" x="88" y="566.0771">,</text><text fill="#000000" font-family="sans-serif" font-size="13" font-weight="bold" lengthAdjust="spacingAndGlyphs" textLength="26" x="96" y="566.0771">data</text><text fill="#000000" font-family="sans-serif" font-size="13" lengthAdjust="spacingAndGlyphs" textLength="4" x="122" y="566.0771">)</text><path d="M192,550.0001 L192,575.0001 L528,575.0001 L528,560.0001 L518,550.0001 L192,550.0001 " fill="#FBFB77" filter="url(#f1q8dljh4mbph7)" style="stroke: #A80036; stroke-width: 1.0;"/><path d="M518,550.0001 L518,560.0001 L528,560.0001 L518,550.0001 " fill="#FBFB77" style="stroke: #A80036; stroke-width: 1.0;"/><text fill="#000000" font-family="sans-serif" font-size="13" lengthAdjust="spacingAndGlyphs" textLength="315" x="198" y="567.0771">Sensitive data such as recovery seeds are in plaintext</text><polygon fill="#A80036" points="333,602.2001,343,606.2001,333,610.2001,337,606.2001" style="stroke: #A80036; stroke-width: 1.0;"/><line style="stroke: #A80036; stroke-width: 1.0;" x1="187" x2="339" y1="606.2001" y2="606.2001"/><text fill="#000000" font-family="sans-serif" font-size="13" lengthAdjust="spacingAndGlyphs" textLength="48" x="194" y="600.6771">api_call(</text><text fill="#000000" font-family="sans-serif" font-size="13" font-weight="bold" lengthAdjust="spacingAndGlyphs" textLength="4" x="242" y="600.6771">t</text><text fill="#000000" font-family="sans-serif" font-size="13" lengthAdjust="spacingAndGlyphs" textLength="4" x="246" y="600.6771">,</text><text fill="#000000" font-family="sans-serif" font-size="13" font-weight="bold" lengthAdjust="spacingAndGlyphs" textLength="26" x="254" y="600.6771">data</text><text fill="#000000" font-family="sans-serif" font-size="13" lengthAdjust="spacingAndGlyphs" textLength="4" x="280" y="600.6771">)</text><polygon fill="#A80036" points="466,631.8001,476,635.8001,466,639.8001,470,635.8001" style="stroke: #A80036; stroke-width: 1.0;"/><line style="stroke: #A80036; stroke-width: 1.0;" x1="345" x2="472" y1="635.8001" y2="635.8001"/><text fill="#000000" font-family="sans-serif" font-size="13" lengthAdjust="spacingAndGlyphs" textLength="81" x="352" y="630.2771">decode_seed(</text><text fill="#000000" font-family="sans-serif" font-size="13" font-weight="bold" lengthAdjust="spacingAndGlyphs" textLength="8" x="433" y="630.2771">T</text><text fill="#000000" font-family="sans-serif" font-size="13" lengthAdjust="spacingAndGlyphs" textLength="4" x="441" y="630.2771">)</text><line style="stroke: #A80036; stroke-width: 1.0;" x1="478" x2="520" y1="665.4001" y2="665.4001"/><line style="stroke: #A80036; stroke-width: 1.0;" x1="520" x2="520" y1="665.4001" y2="678.4001"/><line style="stroke: #A80036; stroke-width: 1.0;" x1="479" x2="520" y1="678.4001" y2="678.4001"/><polygon fill="#A80036" points="489,674.4001,479,678.4001,489,682.4001,485,678.4001" style="stroke: #A80036; stroke-width: 1.0;"/><text fill="#000000" font-family="sans-serif" font-size="13" lengthAdjust="spacingAndGlyphs" textLength="60" x="485" y="659.8771">calculate (</text><text fill="#000000" font-family="sans-serif" font-size="13" font-weight="bold" lengthAdjust="spacingAndGlyphs" textLength="8" x="545" y="659.8771">T</text><text fill="#000000" font-family="sans-serif" font-size="13" lengthAdjust="spacingAndGlyphs" textLength="6" x="557" y="659.8771">^</text><text fill="#000000" font-family="sans-serif" font-size="13" font-weight="bold" lengthAdjust="spacingAndGlyphs" textLength="39" x="567" y="659.8771">SeedT</text><text fill="#000000" font-family="sans-serif" font-size="13" lengthAdjust="spacingAndGlyphs" textLength="20" x="606" y="659.8771">) -&gt;</text><text fill="#000000" font-family="sans-serif" font-size="13" font-weight="bold" lengthAdjust="spacingAndGlyphs" textLength="31" x="630" y="659.8771">Seed</text><polygon fill="#A80036" points="356,704.0002,346,708.0002,356,712.0002,352,708.0002" style="stroke: #A80036; stroke-width: 1.0;"/><polygon fill="#A80036" points="466,704.0002,476,708.0002,466,712.0002,470,708.0002" style="stroke: #A80036; stroke-width: 1.0;"/><line style="stroke: #A80036; stroke-width: 1.0;" x1="350" x2="472" y1="708.0002" y2="708.0002"/><text fill="#000000" font-family="sans-serif" font-size="13" lengthAdjust="spacingAndGlyphs" textLength="98" x="362" y="702.4772">Further API calls</text><line style="stroke: #A80036; stroke-width: 1.0;" x1="478" x2="520" y1="737.6002" y2="737.6002"/><line style="stroke: #A80036; stroke-width: 1.0;" x1="520" x2="520" y1="737.6002" y2="750.6002"/><line style="stroke: #A80036; stroke-width: 1.0;" x1="479" x2="520" y1="750.6002" y2="750.6002"/><polygon fill="#A80036" points="489,746.6002,479,750.6002,489,754.6002,485,750.6002" style="stroke: #A80036; stroke-width: 1.0;"/><text fill="#000000" font-family="sans-serif" font-size="13" lengthAdjust="spacingAndGlyphs" textLength="27" x="485" y="732.0772">Drop</text><text fill="#000000" font-family="sans-serif" font-size="13" font-weight="bold" lengthAdjust="spacingAndGlyphs" textLength="31" x="516" y="732.0772">Seed</text><polygon fill="#A80036" points="198,776.2002,188,780.2002,198,784.2002,194,780.2002" style="stroke: #A80036; stroke-width: 1.0;"/><line style="stroke: #A80036; stroke-width: 1.0;" x1="192" x2="344" y1="780.2002" y2="780.2002"/><text fill="#000000" font-family="sans-serif" font-size="13" lengthAdjust="spacingAndGlyphs" textLength="69" x="204" y="774.6772">Return Data</text><polygon fill="#A80036" points="40,805.8002,30,809.8002,40,813.8002,36,809.8002" style="stroke: #A80036; stroke-width: 1.0;"/><line style="stroke: #A80036; stroke-width: 1.0;" x1="34" x2="186" y1="809.8002" y2="809.8002"/><text fill="#000000" font-family="sans-serif" font-size="13" lengthAdjust="spacingAndGlyphs" textLength="69" x="46" y="804.2772">Return Data</text><!--
@startuml
actor "Client" as client
participant "JSON-RPC API (if used)" as jsonrpc
participant "Internal Rust API" as rustapi
participant "Wallet Backend" as backend
== Open Wallet ==
client -> client: Plain-text password (**pw**)
client -> jsonrpc: Open Wallet(**pw**)
jsonrpc -> rustapi: Open Wallet(**pw**)
rustapi -> rustapi: Generate Token (**t**)
rustapi -> backend: Open Wallet(**t**, **pw**)
backend -> backend: Decrypt seed(**pw**) -> **Seed**
backend -> backend: Store **Seed**^**Token** (**seedT**)
rustapi -> jsonrpc: Return (**t**)
jsonrpc -> client: Return (**t**)
client -> client: Include **t** in next call

== API Call ==
client -> jsonrpc: api_call(**t**, **data**)
note right: Sensitive data such as recovery seeds are in plaintext
jsonrpc -> rustapi: api_call(**t**, **data**)
rustapi -> backend: decode_seed(**T**)
backend -> backend: calculate (**T** ^ **SeedT**) -> **Seed**
rustapi <-> backend: Further API calls
backend -> backend: Drop **Seed**
rustapi -> jsonrpc: Return Data
jsonrpc -> client: Return Data
@enduml

PlantUML version 1.2019.06(Fri May 24 18:10:25 IST 2019)
(GPL source distribution)
Java Runtime: OpenJDK Runtime Environment
JVM: OpenJDK 64-Bit Server VM
Java Version: 12.0.1+12
Operating System: Linux
OS Version: 5.1.11-arch1-1-ARCH
Default Encoding: UTF-8
Language: en
Country: US
--></g></svg>